<mxfile host="app.diagrams.net" modified="2023-06-15T02:10:57.446Z" agent="Mozilla/5.0 (Macintosh; Intel Mac OS X 10_15_7) AppleWebKit/537.36 (KHTML, like Gecko) Chrome/114.0.0.0 Safari/537.36" version="21.4.0" etag="HGliDUUdUFXbHRw1tf3V" type="github">
  <diagram name="Page-1" id="k1GKOCBQFCAQofF-7Z4L">
    <mxGraphModel>
      <root>
        <mxCell id="0" />
        <mxCell id="1" parent="0" />
      </root>
    </mxGraphModel>
  </diagram>
</mxfile>
